PathFileType	4	(X/Y/Z)	..\data\2014029\dynamic\2014029_C5_05.trc
DataRate	CameraRate	NumFrames	NumMarkers	Units	OrigDataRate	OrigDataStartFrame	OrigNumFrames
100.000000	100.000000	4	52	mm	100.000000	129	172
Frame#	Time	L_IAS			L_IPS			R_IPS			R_IAS			L_FTC			L_FLE			L_FME			L_FAX			L_TTC			L_FAL			L_TAM			L_FCC			L_FM1			L_FM2			L_FM5			R_FTC			R_FLE			R_FME			R_FAX			R_TTC			R_FAL			R_TAM			R_FCC			R_FM1			R_FM2			R_FM5			CV7			TV10			SXS			SJN			L_SIA			L_SRS			L_SAA			L_SAE			L_HLE			L_HME			L_UOA			L_RSP			L_UHE			L_HM2			L_HM5			R_SIA			R_SRS			R_SAA			R_SAE			R_HLE			R_HME			R_UOA			R_RSP			R_UHE			R_HM2			R_HM5			
		X1	Y1	Z1	X2	Y2	Z2	X3	Y3	Z3	X4	Y4	Z4	X5	Y5	Z5	X6	Y6	Z6	X7	Y7	Z7	X8	Y8	Z8	X9	Y9	Z9	X10	Y10	Z10	X11	Y11	Z11	X12	Y12	Z12	X13	Y13	Z13	X14	Y14	Z14	X15	Y15	Z15	X16	Y16	Z16	X17	Y17	Z17	X18	Y18	Z18	X19	Y19	Z19	X20	Y20	Z20	X21	Y21	Z21	X22	Y22	Z22	X23	Y23	Z23	X24	Y24	Z24	X25	Y25	Z25	X26	Y26	Z26	X27	Y27	Z27	X28	Y28	Z28	X29	Y29	Z29	X30	Y30	Z30	X31	Y31	Z31	X32	Y32	Z32	X33	Y33	Z33	X34	Y34	Z34	X35	Y35	Z35	X36	Y36	Z36	X37	Y37	Z37	X38	Y38	Z38	X39	Y39	Z39	X40	Y40	Z40	X41	Y41	Z41	X42	Y42	Z42	X43	Y43	Z43	X44	Y44	Z44	X45	Y45	Z45	X46	Y46	Z46	X47	Y47	Z47	X48	Y48	Z48	X49	Y49	Z49	X50	Y50	Z50	X51	Y51	Z51	X52	Y52	Z52	

130	1.29	451.033660888672	1036.324096679688	96.97101593017587	252.2345886230469	1037.643798828125	190.639633178711	265.7316284179688	1041.504272460938	290.5355224609376	474.5748291015626	1061.088500976563	345.491668701172	367.2820739746094	937.194030761719	44.41384506225591	371.0022583007813	496.9868469238282	64.79685974121099	397.5408935546876	458.1270751953126	184.7576293945313	324.2725830078126	457.9849853515626	60.71236038208013	378.8279724121094	398.5513000488282	111.6492462158204	30.28768730163574	237.9965209960938	115.1087265014649	74.93105316162108	205.7051849365235	203.0103302001954	-33.00590896606448	242.8234100341797	177.4649353027344	52.00556945800781	54.04158782958986	190.3535919189453	57.46152114868164	70.99041748046876	145.0466613769532	12.83856773376464	98.55478668212893	93.63166809082033	382.1985473632812	952.2556152343752	423.9787902832033	460.4252929687501	505.4430541992189	388.8406066894533	449.7338867187501	485.2894592285157	260.5314025878907	448.6746520996094	435.1024780273439	389.9013671875002	519.6895751953126	445.7578735351564	327.4506835937501	490.8925170898438	70.1041717529297	317.6025695800782	513.4384765625001	90.09625244140626	219.4109802246095	444.2785949707032	14.82811164855957	268.9449157714845	658.6340332031251	18.20182609558106	228.2714691162111	658.4663696289064	30.97373580932618	290.7703247070314	627.9882812500001	7.633058547973635	344.7764282226564	339.9084777832031	1574.390625	233.9965057373048	250.7203674316407	1309.612426757813	230.3195190429688	504.8955993652345	1285.23583984375	225.4641113281251	466.1228637695313	1478.279174804688	236.6449127197267	228.1878967285157	1352.503784179688	125.4400024414063	267.4936523437501	1508.04052734375	131.8559112548829	324.7528991699219	1507.82421875	18.75065612792973	381.8898010253907	1510.508666992188	14.96448135375982	407.3601379394532	1159.242553710938	-83.77887725830074	372.6590881347657	1138.688110351563	5.217202186584519	367.9857482910157	1123.620849609375	-42.26474761962887	624.5302734375001	973.3359375000002	-23.11606597900383	564.2695922851564	942.1182250976565	-80.99980926513666	692.7618408203126	922.2795410156252	-19.01553344726554	618.8366088867189	874.3145751953127	-88.23493957519526	227.4092864990235	1342.92529296875	320.2770996093751	269.8663940429688	1489.022827148438	332.3425598144532	311.8653564453125	1486.9580078125	440.7748107910158	363.7909240722656	1492.826416015625	456.8731079101564	294.3126831054688	1144.38427734375	510.212127685547	286.9984130859375	1131.043212890625	415.245086669922	268.5314636230469	1128.467529296875	472.2834472656252	399.3998718261719	870.5985107421877	498.3620910644533	313.5303039550781	881.5810546875002	533.5261230468751	412.8343200683594	777.897155761719	498.0223388671877	301.2766723632812	794.2085571289065	536.6745605468751	
131	1.3	463.213592529297	1037.959350585938	97.6268844604493	265.2381896972657	1038.563842773438	192.4381713867188	278.8970947265625	1043.335693359375	291.8984375000001	487.9822387695313	1062.324462890625	346.238983154297	381.0867614746094	938.7254028320315	45.51337051391607	399.8207397460939	498.4859924316407	63.83945846557624	425.9165954589845	460.3234863281251	184.2459411621095	353.6999206542969	459.9105834960939	59.76747512817388	407.9748535156251	400.5237121582032	111.301483154297	58.08176422119141	242.2981719970704	113.8596954345704	102.3396606445312	209.6943054199219	201.8953857421876	-5.943394184112571	246.6226806640626	175.951171875	79.79164886474608	57.75581741333009	186.5969390869141	85.40078735351562	75.25865936279298	141.7528228759766	41.1186408996582	103.9770965576172	90.5472869873047	394.6152343750001	953.5047607421877	424.9626770019533	465.4643554687501	505.8161010742189	389.5370483398439	454.7439270019532	486.0340270996095	261.218231201172	452.8059692382813	435.5734863281251	390.5014953613283	523.8799438476564	445.5350646972657	328.1715087890626	490.6871337890626	70.17821502685548	317.5542297363282	513.3250122070314	90.27103424072267	219.3397216796876	444.2198486328126	14.80065631866455	268.9522399902345	658.4188232421876	18.30294609069825	228.1340637207033	658.5155639648439	31.18025970458985	290.5851440429689	627.8817138671876	7.948235034942629	344.7447814941407	354.1965942382812	1575.674072265625	233.9668731689454	264.5585937500001	1311.131225585938	231.5602416992188	518.0651855468751	1286.542602539063	225.0050506591798	479.7030639648438	1479.765625	236.5198211669923	241.5648498535157	1354.064453125	126.2386016845704	280.6302795410157	1509.880615234375	132.9537658691407	337.1758728027344	1509.640014648438	19.48006057739262	394.1948242187501	1512.1376953125	15.27965641021734	415.2779846191407	1159.513427734375	-81.19431304931636	381.3348388671876	1140.594604492188	8.456783294677782	376.1707153320313	1125.337036132813	-39.01868820190426	628.4465942382814	968.0283813476565	-22.39952850341789	565.9569091796876	938.2421875000002	-79.58711242675776	694.9598388671876	914.6606445312502	-18.53763198852531	619.0217285156251	869.0838623046877	-87.37305450439447	241.7295837402344	1344.687255859375	321.8942871093751	284.1923522949219	1490.7109375	333.4537353515626	327.0924987792969	1488.699951171875	441.7446899414064	379.242919921875	1494.569580078125	457.3256835937502	311.8760986328125	1145.638916015625	511.843231201172	303.7371520996094	1132.198120117188	416.816619873047	285.8804321289062	1129.493286132813	474.0659484863283	419.5408630371094	872.6668090820315	498.7374572753908	333.9555969238281	883.0410766601565	535.0839843750001	433.4605407714844	780.0029296875002	498.0604858398439	322.3973083496094	795.6234130859377	538.3926391601564	
132	1.31	475.3946533203126	1039.697998046875	98.34433746337899	278.2676696777344	1039.418212890625	194.2580871582032	291.8576965332031	1044.999267578125	293.2980041503907	501.1749572753907	1063.316528320313	347.0874328613282	394.657684326172	940.4848632812502	46.54170608520513	428.202362060547	500.6304016113282	63.08787918090827	453.7059326171876	463.3025817871095	183.9785156250001	382.7382202148438	462.1508789062501	59.05760574340827	437.1080017089845	403.1517333984376	111.0916900634766	86.67562866210938	245.2407836914063	112.5848541259766	130.7350921630859	212.669418334961	200.8074645996095	21.86696052551268	248.3094177246094	174.3199157714844	110.5422515869141	60.59209060668947	182.7810668945313	116.0484771728516	78.82459259033205	138.331527709961	71.76076507568359	108.0105209350586	87.37996673583987	406.7724609375001	954.3460083007815	425.8607788085939	470.4584045410157	506.0943603515626	390.0386962890627	459.7722167968751	486.6612243652345	261.7105102539064	456.9086608886719	435.9717407226564	390.9012451171877	528.0694580078126	445.2214660644532	328.7239379882814	490.4972839355469	70.22328186035158	317.4486083984376	513.2951049804689	90.3672561645508	219.217987060547	444.1166381835938	14.78569221496582	268.9138183593751	658.2409057617189	18.33029365539551	228.0102691650392	658.5361328125001	31.2623634338379	290.3656005859376	627.7321777343751	8.143357276916506	344.6778259277345	368.3976135253906	1576.888305664063	233.7676086425782	278.3035583496094	1312.59423828125	232.815902709961	531.0836181640626	1287.764404296875	224.5188751220704	493.1609497070313	1481.163818359375	236.2819366455079	254.7566375732422	1355.5263671875	127.2015914916993	293.6463623046876	1511.573120117188	133.9768371582032	349.3873291015626	1511.269165039063	20.13282394409184	406.2925415039064	1513.591796875	15.4595336914063	423.125213623047	1159.710693359375	-78.64682006835933	389.8807983398439	1142.410278320313	11.69691562652593	384.312225341797	1126.975463867188	-35.8119850158691	631.8939819335939	962.5293579101565	-21.75697135925286	567.2702636718751	934.3506469726565	-78.29274749755854	696.5342407226564	906.8228149414065	-18.09781646728507	618.6538085937501	863.8215332031252	-86.61637878417963	255.9418182373047	1346.426391601563	323.3923645019532	298.4076232910156	1492.399169921875	334.4552307128907	342.2099914550781	1490.486694335938	442.579315185547	394.5528259277344	1496.349487304688	457.6469116210939	329.34228515625	1146.93896484375	513.4260253906251	320.396484375	1133.349609375	418.408416748047	303.14306640625	1130.522216796875	475.8625488281252	439.9094848632813	874.9151000976565	499.084442138672	354.6346130371094	884.583923339844	536.6463623046876	454.5036926269532	782.3535156250002	498.1860656738283	343.9436340332031	797.1126708984377	540.2086791992189	
133	1.32	487.6417541503907	1041.508666992188	99.14442443847665	291.3201599121094	1040.240478515625	195.9913177490235	304.6302490234375	1046.491088867188	294.6640014648439	514.1466064453126	1064.087524414063	348.0481567382814	408.083953857422	942.418640136719	47.48151397705084	456.0246582031251	503.3689575195314	62.54515457153327	480.9197387695314	466.9173278808595	183.8959197998048	411.2534790039064	464.6482238769532	58.57501602172858	466.1071777343751	406.3558044433595	110.9440155029298	115.9573593139649	246.7102355957032	111.2798919677735	160.0540313720703	214.4864044189454	199.7114868164063	50.37730407714843	247.8360137939454	172.6031188964844	143.9756469726562	62.44839477539064	179.0036621093751	149.1316070556641	81.53196716308595	134.8931121826172	104.5064468383789	110.5116271972657	84.22454071044925	418.6673583984376	954.8210449218752	426.6631469726564	475.5086364746094	506.2966918945314	390.3548583984377	464.8797302246094	487.1812744140626	262.019989013672	461.0925598144532	436.3136596679689	391.1192932128908	532.3380737304689	444.8268432617189	329.0974426269532	490.3703918457032	70.2598342895508	317.2918701171876	513.3746948242189	90.3902053833008	219.0448608398439	443.9948120117188	14.81242370605469	268.8481750488282	658.1211547851564	18.25043678283692	227.8902435302736	658.5715332031251	31.21291732788087	290.114715576172	627.5723876953126	8.215192794799806	344.5984497070314	382.4646606445312	1578.054077148438	233.4886627197267	291.9545593261719	1313.993408203125	234.0762939453126	543.9885253906251	1288.905639648438	224.0531616210939	506.5125122070313	1482.468627929688	235.9660949707032	267.7742614746094	1356.872924804688	128.3574981689454	306.5562744140626	1513.100341796875	134.9491271972657	361.4082031250001	1512.69677734375	20.73757934570317	418.2144165039064	1514.863159179688	15.528398513794	430.9144897460939	1159.829956054688	-76.15628051757808	398.3095092773439	1144.115478515625	14.91960430145269	392.4154357910157	1128.524291992188	-32.66261291503902	634.8807983398439	956.8767700195315	-21.19473075866692	568.2838745117189	930.4932861328127	-77.13175964355463	697.5025024414064	898.824890136719	-17.7025833129882	617.7591552734376	858.5708007812502	-85.95624542236322	270.0630187988281	1348.12744140625	324.7904357910157	312.5164184570312	1494.073852539063	335.3757934570314	357.2149353027344	1492.2978515625	443.305633544922	409.7143859863282	1498.145385742188	457.8652343750002	346.7099304199219	1148.27001953125	514.9504394531251	336.9874267578125	1134.48583984375	420.0151672363283	320.3208618164062	1131.535888671875	477.6719360351564	460.4725646972657	877.3414306640627	499.3963317871095	375.5347900390625	886.2026367187502	538.1866455078126	475.9509277343751	784.9581298828127	498.4007873535158	365.8899230957031	798.6694335937502	542.0877685546876	
